<svg width="214" height="30" viewBox="0 0 214 30" fill="none" xmlns="http://www.w3.org/2000/svg">
<g clip-path="url(#clip0_4018_6081)">
<path d="M85.2247 24.277C83.9351 24.9696 82.4244 25.2977 80.619 25.2977C78.8136 25.2977 77.9293 25.0425 76.7502 24.4957C75.5711 23.949 74.5394 23.2199 73.692 22.2722C72.8445 21.3244 72.1445 20.2309 71.7023 18.9915C71.2233 17.7521 71.0023 16.4034 71.0023 14.9453C71.0023 13.4872 71.2233 12.175 71.7023 10.9356C72.1813 9.69623 72.8445 8.60267 73.692 7.69137C74.5394 6.78007 75.5711 6.05103 76.7502 5.50425C77.9293 4.95747 79.2189 4.70231 80.619 4.70231C82.0191 4.70231 83.7877 5.03038 85.0773 5.68651C86.4038 6.34265 87.6197 7.2175 88.7987 8.2746L92.1149 4.52005C91.4148 3.86391 90.6779 3.24423 89.9041 2.69745C89.1304 2.15067 88.2829 1.67679 87.3618 1.27582C86.4406 0.874848 85.4458 0.583232 84.3404 0.328068C83.235 0.109356 82.0191 0 80.6927 0C78.4451 0 76.4186 0.400972 74.5763 1.16646C72.734 1.96841 71.1496 3.02552 69.8232 4.41069C68.4968 5.79587 67.4282 7.3633 66.6913 9.1859C65.9544 11.0085 65.5859 12.9405 65.5859 15.0182C65.5859 17.096 65.9544 19.0644 66.7282 20.887C67.4651 22.7096 68.5336 24.277 69.86 25.6258C71.1865 26.9745 72.734 28.0316 74.5763 28.7971C76.3817 29.5626 78.3714 29.9635 80.5085 29.9635C82.6455 29.9635 83.1245 29.8542 84.2667 29.599C85.4089 29.3803 86.4406 29.0158 87.3986 28.5784C88.3566 28.1409 89.2409 27.5942 90.0515 26.9745C90.8621 26.3548 91.6727 25.6622 92.4096 24.8603L89.0935 21.5431C87.8408 22.7096 86.588 23.6209 85.2984 24.277H85.2247Z" fill="white"/>
<path d="M103.87 17.1324H118.534V12.5395H103.87V5.10328H120.414V0.510328H98.7852V29.4532H120.635V24.8603H103.87V17.1324Z" fill="white"/>
<path d="M147.603 17.3147C148.451 16.8044 149.187 16.1847 149.814 15.4557C150.44 14.7266 150.919 13.8882 151.251 12.9405C151.582 11.9927 151.767 10.8991 151.767 9.69623C151.767 8.49332 151.509 6.99879 151.03 5.86877C150.514 4.73876 149.814 3.75456 148.893 2.98906C147.972 2.18712 146.829 1.60389 145.466 1.16646C144.103 0.72904 142.592 0.510328 140.934 0.510328H127.891V29.4532H132.975V19.356H139.423L146.645 29.4532H152.725L144.803 18.4812C145.834 18.1896 146.792 17.825 147.64 17.3147H147.603ZM132.938 14.836V5.10328H140.455C142.371 5.10328 143.882 5.50425 144.95 6.34265C146.019 7.14459 146.535 8.38396 146.535 9.98785C146.535 11.5917 145.982 12.6853 144.913 13.5601C143.808 14.435 142.371 14.8724 140.492 14.8724H132.938V14.836Z" fill="white"/>
<path d="M156.891 5.21264H166.176V29.4532H171.371V5.21264H180.656V0.510328H156.891V5.21264Z" fill="white"/>
<path d="M195.982 18.627C195.319 18.1531 194.582 17.7521 193.772 17.4241C192.961 17.096 192.15 16.8044 191.34 16.5492C190.713 16.367 190.087 16.1482 189.461 15.966C188.834 15.7837 188.318 15.5286 187.876 15.3098C187.434 15.0911 187.029 14.7995 186.771 14.5079C186.476 14.2163 186.366 13.8882 186.366 13.4872V13.4143C186.366 12.7947 186.624 12.2479 187.176 11.8469C187.729 11.4459 188.466 11.2272 189.461 11.2272C190.456 11.2272 191.377 11.4095 192.482 11.774C193.587 12.1385 194.656 12.6488 195.688 13.2685L197.677 9.69623C196.498 8.93074 195.209 8.31106 193.772 7.87363C192.335 7.43621 190.935 7.2175 189.534 7.2175C188.134 7.2175 187.434 7.36331 186.476 7.65492C185.518 7.94654 184.671 8.38396 183.971 8.96719C183.271 9.55043 182.718 10.243 182.313 11.0814C181.907 11.9198 181.723 12.8311 181.723 13.8518V13.9247C181.723 14.9818 181.944 15.8566 182.349 16.5492C182.755 17.2418 183.307 17.8615 183.971 18.3354C184.634 18.8092 185.371 19.2102 186.181 19.5018C186.992 19.7934 187.803 20.0851 188.613 20.3402C189.24 20.5225 189.866 20.7047 190.492 20.887C191.082 21.0693 191.635 21.288 192.077 21.5067C192.519 21.7254 192.887 22.017 193.182 22.3086C193.44 22.6002 193.587 22.9648 193.587 23.4022V23.4751C193.587 24.2041 193.293 24.7509 192.703 25.1883C192.114 25.6258 191.266 25.8445 190.161 25.8445C189.055 25.8445 187.839 25.6258 186.587 25.1519C185.334 24.7145 184.118 24.0219 182.939 23.147L180.691 26.5371C182.092 27.6306 183.602 28.4326 185.223 28.9793C186.845 29.5261 188.466 29.8177 190.05 29.8177C191.635 29.8177 192.261 29.6719 193.256 29.3803C194.251 29.0887 195.135 28.6513 195.872 28.1045C196.609 27.5577 197.198 26.8287 197.604 25.9903C198.009 25.1519 198.23 24.1312 198.23 22.9648V22.8919C198.23 21.9077 198.009 21.0693 197.604 20.3767C197.198 19.6841 196.646 19.1008 195.982 18.627Z" fill="white"/>
<path d="M23.325 0.838396L18.8667 11.1908H11.1659L4.42318 4.52005C4.71794 4.15553 4.86533 3.68165 4.86533 3.17132C4.86533 1.8955 3.83365 0.874848 2.54404 0.874848C1.25444 0.874848 0.222764 1.8955 0.222764 3.13487C0.222764 4.37424 1.25444 5.43135 2.54404 5.43135C3.83365 5.43135 3.13358 5.35844 3.3915 5.28554L10.6501 12.4666H18.314L17.3192 14.7995H4.6811C4.38633 13.8518 3.50203 13.1227 2.43351 13.1227C1.36498 13.1227 0.112227 14.1434 0.112227 15.4192C0.112227 16.695 1.14391 17.7157 2.43351 17.7157C3.72311 17.7157 4.38633 17.0231 4.6811 16.0389H16.7665L15.7717 18.3718H10.3922L3.13358 25.5529C2.87566 25.4435 2.58089 25.407 2.28612 25.407C0.996524 25.407 -0.0351562 26.4277 -0.0351562 27.7035C-0.0351562 28.9793 0.996524 30 2.28612 30C3.57573 30 4.60741 28.9793 4.60741 27.7035C4.60741 26.4277 4.42318 26.7193 4.16526 26.3548L10.908 19.6841H15.1821L10.7238 30.0364H17.2823L19.9721 23.548H32.3522L35.042 30.0364H41.7847L29.2572 0.838396H23.325ZM22.3302 17.8615L26.2358 8.45686L30.1415 17.8615H22.367H22.3302Z" fill="#CFA935"/>
<path d="M54.2019 0.9113H47.7539V29.8542H54.2019V0.9113Z" fill="#CFA935"/>
<path d="M198.266 2.04131H200.624V8.16525H202.319V2.04131H204.677V0.510328H198.266V2.04131Z" fill="white"/>
<path d="M212.157 0.510328L210.131 3.7181L208.067 0.510328H206.262V8.16525H207.92V3.17132L210.057 6.41555H210.131L212.304 3.13487V8.16525H213.999V0.510328H212.157Z" fill="white"/>
</g>
<defs>
<clipPath id="clip0_4018_6081">
<rect width="214" height="30" fill="white"/>
</clipPath>
</defs>
</svg>
